<svg preserveAspectRatio="xMidYMid meet" data-bbox="21.001 29.999 157.999 139.999" viewBox="21.001 29.999 157.999 139.999" height="200" width="200" xmlns="http://www.w3.org/2000/svg" data-type="color" role="presentation" aria-hidden="true" aria-label="">
    <g>
        <path d="M177.186 128.938a15.225 15.225 0 0 0-1.144-1.813c-.019-.026-.044-.046-.064-.071 2.223-5.303 2.133-11.524-.797-16.972-3.75-6.972-11.123-10.761-18.558-10.34-.029-.062-.049-.126-.084-.186a18.709 18.709 0 0 0-5.661-6.057 2.16 2.16 0 0 0 .144-.558 65.405 65.405 0 0 0-.089-14.35c-1.626-13.965-7.559-26.736-17.155-36.958-.521-.879-2.347-3.632-5.955-5.888-3.83-2.395-10.526-4.716-20.658-2.173-6.015-2.94-12.273-4.261-21.228-3.221a2.191 2.191 0 0 0-.702.204c-1.829.889-4.051 2.448-5.972 4.621a2.15 2.15 0 0 0-.349.008C68.112 36.437 59.641 40.8 55.219 47.269c-1.741-.876-3.456-1.218-4.655-1.232-.412.019-.859.12-1.222.357-2.492 1.635-4.505 3.184-6.239 4.872-15.38 3.83-17.52 9.66-17.798 11.567-3.739 9.733-5.083 20.371-3.87 30.793 1.972 16.933 10.346 32.188 23.582 42.95 11.723 9.534 26.123 14.63 41.061 14.629 1.632 0 3.273-.073 4.916-.196.34 1.165.853 2.373 1.548 3.574 2.218 3.834 5.399 6.132 8.131 6.132.774 0 1.512-.184 2.182-.57.015-.008.027-.02.041-.028.007-.004.014-.005.02-.009 11.294-7.02 20.158-9.543 26.941-9.833a20.191 20.191 0 0 0 2.401 9.082c3.647 6.781 10.642 10.642 17.859 10.641a20.14 20.14 0 0 0 9.541-2.402 20.164 20.164 0 0 0 10.659-17.83c.227-.108.463-.196.685-.315a15.06 15.06 0 0 0 7.348-8.978 15.033 15.033 0 0 0-1.164-11.535z" fill="#000010" data-color="1"></path>
        <path d="M125.135 39.193c-1.878-.032-3.929.232-5.961 1.059-.258.105-.502.235-.751.355-.077-.072-.153-.146-.242-.208a154.31 154.31 0 0 0-5.124-3.453c5.475-.534 9.395.68 12.078 2.247z" fill="#B8D65B" data-color="2"></path>
        <path d="M86.838 34.631c12.312-1.336 18.562 2.204 27.826 8.629-1.605 1.584-2.946 3.601-3.99 6.073-3.95.283-13.789 2.18-15.608 13.959-4.118.267-12.955 2.055-15.714 12.246-2.013-1.075-4.134-1.556-6.087-1.711a2.146 2.146 0 0 0-.201-.619c-1.942-3.74-2.384-7.159-1.313-10.162.332-.931.794-1.774 1.323-2.533.057-.068.107-.14.154-.214 2.397-3.285 6.059-4.903 6.1-4.921a2.174 2.174 0 0 0 1.162-2.834c-4.621-11.173 4.5-16.892 6.348-17.913z" fill="#B8D65B" data-color="2"></path>
        <path d="M76.163 40.009c-1.45 3.362-1.93 7.493-.388 12.325a21.727 21.727 0 0 0-4.276 3.302c-3.389-3.611-7.706-3.604-10.809-2.653a12.12 12.12 0 0 0-2.009-3.068c3.226-4.886 9.42-8.386 17.482-9.906z" fill="#B8D65B" data-color="2"></path>
        <path d="M51.101 50.454c1.414.226 4.971 1.263 6.201 5.976a2.179 2.179 0 0 0 3.2 1.336c.538-.31 5.035-2.706 8.29 1.406-.428.74-.825 1.517-1.133 2.372-1.384 3.845-1.046 8.029.961 12.448-.396.058-.761.121-1.086.185-2.236-3.352-5.152-5.547-8.687-6.535-4.979-1.393-9.924.016-12.69 1.122-1.434-2.945-3.489-4.903-5.771-6.174 2.902-5.697 5.493-8.624 10.715-12.136z" fill="#B8D65B" data-color="2"></path>
        <path d="M36.292 61.036a19.154 19.154 0 0 0-4.263-.47c1.304-1.004 3.303-2.168 6.345-3.307a50.216 50.216 0 0 0-2.082 3.777z" fill="#B8D65B" data-color="2"></path>
        <path d="M79.6 146.506c-1.389-.342-20.544-5.462-21.476-26.699-.001-.018-.003-.034-.003-.052v-.006c-.034-.486-.728-11.899 8.893-13.016a2.176 2.176 0 0 0 1.912-2.414 2.165 2.165 0 0 0-2.417-1.91c-5.095.591-8.272 3.251-10.193 6.477-4.643-14.666-16.402-15.49-16.545-15.497a2.169 2.169 0 0 0-2.28 2.045 2.185 2.185 0 0 0 2.038 2.301c.543.037 13.313 1.133 14.239 22.263l.002.029.001.029.002.011c.492 10.784 5.198 17.976 10.39 22.669a60.962 60.962 0 0 1-16.396-9.533c-12.349-10.043-20.165-24.276-22.005-40.078-1.097-9.436.042-19.063 3.295-27.919 1.191-.2 3.263-.419 5.471-.071 4.213.666 7.037 3.102 8.394 7.241a2.18 2.18 0 0 0 3.14 1.219c.061-.033 6.051-3.33 11.632-1.754 2.845.802 5.167 2.782 6.903 5.887a2.184 2.184 0 0 0 2.569 1.011c.06-.019 6.091-1.838 10.563.879 2.627 1.595 4.316 4.525 5.022 8.708a2.185 2.185 0 0 0 2.494 1.788c.046-.006 4.404-.644 7.689 1.996 2.359 1.896 3.692 5.088 3.965 9.485.075 1.201 1.127 2.121 2.31 2.038a2.177 2.177 0 0 0 2.041-2.306c-.353-5.701-2.248-9.956-5.631-12.648-3.122-2.484-6.736-2.968-8.965-2.991-.712-2.858-1.878-5.223-3.479-7.086.777-4.851 3.145-8.174 7.092-9.844 3.298-1.394 6.53-1.149 6.553-1.145a2.19 2.19 0 0 0 1.609-.51c.446-.379.721-.921.762-1.505.37-5.232 2.578-8.819 6.562-10.66 3.131-1.446 6.275-1.3 6.294-1.299.951.073 1.86-.528 2.186-1.441 1.446-4.05 3.653-6.709 6.558-7.903 4.125-1.696 8.683-.071 9.927.44 8.883 9.515 14.371 21.386 15.883 34.36a61.14 61.14 0 0 1 .169 12.281c-4.69-1.749-10.041-1.684-14.831.606a2.147 2.147 0 0 0-.453.3c-4.92-2.345-10.849-2.388-15.966.359a17.495 17.495 0 0 0-8.542 10.435 17.47 17.47 0 0 0 1.352 13.411 17.558 17.558 0 0 0 9.157 8.065c-3.872 5.706-11.061 12.095-24.127 18.065a2.212 2.212 0 0 0-.338.197c-.049.026-.101.044-.15.072-1.3.749-2.064 2.103-2.295 3.79-3.69.268-7.362.217-10.977-.17z" fill="#B8D65B" data-color="2"></path>
        <path d="M125.135 39.193c-1.878-.032-3.929.232-5.961 1.059-.258.105-.502.235-.751.355-.077-.072-.153-.146-.242-.208a154.31 154.31 0 0 0-5.124-3.453c5.475-.534 9.395.68 12.078 2.247z" opacity=".05"></path>
        <path d="M36.292 61.036a19.154 19.154 0 0 0-4.263-.47c1.304-1.004 3.303-2.168 6.345-3.307a50.216 50.216 0 0 0-2.082 3.777z" opacity=".05"></path>
        <path d="M79.6 146.506c-1.389-.342-20.544-5.462-21.476-26.699-.001-.018-.003-.034-.003-.052v-.006c-.034-.486-.728-11.899 8.893-13.016a2.176 2.176 0 0 0 1.912-2.414 2.165 2.165 0 0 0-2.417-1.91c-5.095.591-8.272 3.251-10.193 6.477-4.643-14.666-16.402-15.49-16.545-15.497a2.169 2.169 0 0 0-2.28 2.045 2.185 2.185 0 0 0 2.038 2.301c.543.037 13.313 1.133 14.239 22.263l.002.029.001.029.002.011c.492 10.784 5.198 17.976 10.39 22.669a60.962 60.962 0 0 1-16.396-9.533c-12.349-10.043-20.165-24.276-22.005-40.078-1.097-9.436.042-19.063 3.295-27.919 1.191-.2 3.263-.419 5.471-.071 4.213.666 7.037 3.102 8.394 7.241a2.18 2.18 0 0 0 3.14 1.219c.061-.033 6.051-3.33 11.632-1.754 2.845.802 5.167 2.782 6.903 5.887a2.184 2.184 0 0 0 2.569 1.011c.06-.019 6.091-1.838 10.563.879 2.627 1.595 4.316 4.525 5.022 8.708a2.185 2.185 0 0 0 2.494 1.788c.046-.006 4.404-.644 7.689 1.996 2.359 1.896 3.692 5.088 3.965 9.485.075 1.201 1.127 2.121 2.31 2.038a2.177 2.177 0 0 0 2.041-2.306c-.353-5.701-2.248-9.956-5.631-12.648-3.122-2.484-6.736-2.968-8.965-2.991-.712-2.858-1.878-5.223-3.479-7.086.777-4.851 3.145-8.174 7.092-9.844 3.298-1.394 6.53-1.149 6.553-1.145a2.19 2.19 0 0 0 1.609-.51c.446-.379.721-.921.762-1.505.37-5.232 2.578-8.819 6.562-10.66 3.131-1.446 6.275-1.3 6.294-1.299.951.073 1.86-.528 2.186-1.441 1.446-4.05 3.653-6.709 6.558-7.903 4.125-1.696 8.683-.071 9.927.44 8.883 9.515 14.371 21.386 15.883 34.36a61.14 61.14 0 0 1 .169 12.281c-4.69-1.749-10.041-1.684-14.831.606a2.147 2.147 0 0 0-.453.3c-4.92-2.345-10.849-2.388-15.966.359a17.495 17.495 0 0 0-8.542 10.435 17.47 17.47 0 0 0 1.352 13.411 17.558 17.558 0 0 0 9.157 8.065c-3.872 5.706-11.061 12.095-24.127 18.065a2.212 2.212 0 0 0-.338.197c-.049.026-.101.044-.15.072-1.3.749-2.064 2.103-2.295 3.79-3.69.268-7.362.217-10.977-.17z" opacity=".05"></path>
        <path d="M96.317 152.409c-1.693-2.928-1.64-5.37-1.287-5.743a.446.446 0 0 1 .102-.012c.67 0 2.676 1.2 4.277 3.971 1.688 2.919 1.64 5.353 1.289 5.738a.04.04 0 0 1-.009.005c-.571.134-2.686-1.044-4.372-3.959z" fill="#B8D65B" data-color="2"></path>
        <path d="M174.174 139.22a10.73 10.73 0 0 1-5.236 6.399 10.836 10.836 0 0 1-5.049 1.287 2.178 2.178 0 0 0-2.168 2.188 2.178 2.178 0 0 0 2.18 2.165h.012a14.98 14.98 0 0 0 1.985-.151 15.813 15.813 0 0 1-8.303 12.656c-7.71 4.135-17.355 1.236-21.497-6.464a15.837 15.837 0 0 1-1.876-6.847c.07-.005.148-.017.219-.023 4.682.539 8.057 2.182 10.292 3.745a2.18 2.18 0 0 0 3.035-.533 2.174 2.174 0 0 0-.534-3.031 24.927 24.927 0 0 0-5.196-2.767c3.15-2.015 5.986-5.381 7.051-10.773a2.176 2.176 0 0 0-1.717-2.556 2.175 2.175 0 0 0-2.56 1.714c-1.549 7.836-7.694 9.489-10.415 9.822-7.189-.697-16.838.866-29.279 7.722-.241-1.677-.881-3.508-1.931-5.326-.984-1.701-2.159-3.09-3.399-4.12a88.546 88.546 0 0 0 3.324-1.815c.017-.01.037-.013.054-.023.059-.034 6.003-3.473 13.7-1.508a2.177 2.177 0 1 0 1.081-4.217 23.944 23.944 0 0 0-5.312-.737c5.988-4.921 9.415-9.819 11.305-14.192a5.107 5.107 0 0 1 1.731-1.546 5.166 5.166 0 0 1 5.836.673 2.184 2.184 0 0 0 3.077-.192 2.174 2.174 0 0 0-.193-3.072c-2.376-2.091-5.624-2.802-8.615-2.052.262-1.617.338-3.087.304-4.363-.032-1.201-1.07-2.183-2.236-2.118a2.177 2.177 0 0 0-2.121 2.233c.058 2.186-.272 5.034-1.592 8.272a9.37 9.37 0 0 0-.581 1.024c-.009-.003-.017-.009-.026-.012a13.23 13.23 0 0 1-7.352-6.255 13.157 13.157 0 0 1-1.017-10.096 13.18 13.18 0 0 1 6.431-7.856c6.147-3.297 13.852-1.255 17.54 4.651a2.183 2.183 0 0 0 3.004.695 2.177 2.177 0 0 0 .696-2.999 17.433 17.433 0 0 0-3.062-3.658c5.951-1.855 12.567.301 16.235 5.388a19.783 19.783 0 0 0-9.077 5.84 2.177 2.177 0 0 0 .199 3.073 2.186 2.186 0 0 0 3.077-.199 15.31 15.31 0 0 1 4.286-3.394c7.483-4.012 16.841-1.201 20.861 6.271 4.018 7.472 1.2 16.816-6.282 20.831a2.175 2.175 0 0 0 1.033 4.094 2.17 2.17 0 0 0 1.029-.259 19.616 19.616 0 0 0 6.382-5.478 10.701 10.701 0 0 1 .667 7.889z" fill="#95C11F" data-color="3"></path>
        <path d="M174.174 139.22a10.73 10.73 0 0 1-5.236 6.399 10.836 10.836 0 0 1-5.049 1.287 2.178 2.178 0 0 0-2.168 2.188 2.178 2.178 0 0 0 2.18 2.165h.012a14.98 14.98 0 0 0 1.985-.151 15.813 15.813 0 0 1-8.303 12.656c-7.71 4.135-17.355 1.236-21.497-6.464a15.837 15.837 0 0 1-1.876-6.847c.07-.005.148-.017.219-.023 4.682.539 8.057 2.182 10.292 3.745a2.18 2.18 0 0 0 3.035-.533 2.174 2.174 0 0 0-.534-3.031 24.927 24.927 0 0 0-5.196-2.767c3.15-2.015 5.986-5.381 7.051-10.773a2.176 2.176 0 0 0-1.717-2.556 2.175 2.175 0 0 0-2.56 1.714c-1.549 7.836-7.694 9.489-10.415 9.822-7.189-.697-16.838.866-29.279 7.722-.241-1.677-.881-3.508-1.931-5.326-.984-1.701-2.159-3.09-3.399-4.12a88.546 88.546 0 0 0 3.324-1.815c.017-.01.037-.013.054-.023.059-.034 6.003-3.473 13.7-1.508a2.177 2.177 0 1 0 1.081-4.217 23.944 23.944 0 0 0-5.312-.737c5.988-4.921 9.415-9.819 11.305-14.192a5.107 5.107 0 0 1 1.731-1.546 5.166 5.166 0 0 1 5.836.673 2.184 2.184 0 0 0 3.077-.192 2.174 2.174 0 0 0-.193-3.072c-2.376-2.091-5.624-2.802-8.615-2.052.262-1.617.338-3.087.304-4.363-.032-1.201-1.07-2.183-2.236-2.118a2.177 2.177 0 0 0-2.121 2.233c.058 2.186-.272 5.034-1.592 8.272a9.37 9.37 0 0 0-.581 1.024c-.009-.003-.017-.009-.026-.012a13.23 13.23 0 0 1-7.352-6.255 13.157 13.157 0 0 1-1.017-10.096 13.18 13.18 0 0 1 6.431-7.856c6.147-3.297 13.852-1.255 17.54 4.651a2.183 2.183 0 0 0 3.004.695 2.177 2.177 0 0 0 .696-2.999 17.433 17.433 0 0 0-3.062-3.658c5.951-1.855 12.567.301 16.235 5.388a19.783 19.783 0 0 0-9.077 5.84 2.177 2.177 0 0 0 .199 3.073 2.186 2.186 0 0 0 3.077-.199 15.31 15.31 0 0 1 4.286-3.394c7.483-4.012 16.841-1.201 20.861 6.271 4.018 7.472 1.2 16.816-6.282 20.831a2.175 2.175 0 0 0 1.033 4.094 2.17 2.17 0 0 0 1.029-.259 19.616 19.616 0 0 0 6.382-5.478 10.701 10.701 0 0 1 .667 7.889z" opacity=".3"></path>
        <path d="M156.324 122.293a8.162 8.162 0 0 0-6.821-.676 2.175 2.175 0 0 0-1.345 2.77 2.182 2.182 0 0 0 2.774 1.343 3.804 3.804 0 0 1 3.181.315 3.776 3.776 0 0 1 1.856 2.876 2.178 2.178 0 0 0 2.4 1.931 2.178 2.178 0 0 0 1.934-2.397 8.196 8.196 0 0 0-3.979-6.162z" fill="#B8D65B" data-color="2"></path>
        <path d="M96.317 152.409c-1.693-2.928-1.64-5.37-1.287-5.743a.446.446 0 0 1 .102-.012c.67 0 2.676 1.2 4.277 3.971 1.688 2.919 1.64 5.353 1.289 5.738a.04.04 0 0 1-.009.005c-.571.134-2.686-1.044-4.372-3.959z" opacity=".3"></path>
        <path d="M156.324 122.293a8.162 8.162 0 0 0-6.821-.676 2.175 2.175 0 0 0-1.345 2.77 2.182 2.182 0 0 0 2.774 1.343 3.804 3.804 0 0 1 3.181.315 3.776 3.776 0 0 1 1.856 2.876 2.178 2.178 0 0 0 2.4 1.931 2.178 2.178 0 0 0 1.934-2.397 8.196 8.196 0 0 0-3.979-6.162z" opacity=".3"></path>
        <path d="M123.022 82.856a2.17 2.17 0 0 0 1.195-.358 2.174 2.174 0 0 0 .624-3.014c-3.895-5.915-3.725-11.074.509-15.333a2.177 2.177 0 0 0-.012-3.079 2.183 2.183 0 0 0-3.083.012c-5.721 5.756-6.095 13.14-1.056 20.791a2.177 2.177 0 0 0 1.823.981z" fill="#000010" data-color="1"></path>
    </g>
</svg>